# xmcd
#
# Track frame offsets: 
#        150
#        17139
#        37050
#        52934
#        68780
#        86796
#        100799
#        129067
#        145860
#        160208
#        177878
#        192002
#        203249
#        215157
#        231885
#        254412
#        268332
#        293936
#
# Disc length: 4126 seconds
#
# Revision: 1
# Processed by: cddbd v1.5.2PL0 Copyright (c) Steve Scherf et al.
# Submitted via: ExactAudioCopyFreeDBPlugin 1.0
#
DISCID=0c101c12
DTITLE=Billie Holiday - Jazzclub Legends - Lady Sings The Blues
DYEAR=2006
DGENRE=Blues
TTITLE0=Lady Sings The Blues
TTITLE1=Come Rain Or Come Shine
TTITLE2=Blue Moon
TTITLE3=Good Morning Heartache
TTITLE4=God Bless The Child
TTITLE5=Baby Won't You Please Come Home
TTITLE6=Ill Wind
TTITLE7=Autumn In New York
TTITLE8=Don't Worry 'bout Me
TTITLE9=I Don't Want To Cry Anymore
TTITLE10=Willow Weep For Me
TTITLE11=It's Not For Me To Say
TTITLE12=My Man
TTITLE13=Stormy Weather
TTITLE14=When Your Lover Has Gone
TTITLE15=I Must Have That Man!
TTITLE16=One For My Baby (And One More For The Road)
TTITLE17=I'll Never Smile Again
EXTD=
EXTT0=Lady Sings The Blues
EXTT1=Come Rain Or Come Shine
EXTT2=Blue Moon
EXTT3=Good Morning Heartache
EXTT4=God Bless The Child
EXTT5=Baby Won't You Please Come Home
EXTT6=Ill Wind
EXTT7=Autumn In New York
EXTT8=Don't Worry 'bout Me
EXTT9=I Don't Want To Cry Anymore
EXTT10=Willow Weep For Me
EXTT11=It's Not For Me To Say
EXTT12=My Man
EXTT13=Stormy Weather
EXTT14=When Your Lover Has Gone
EXTT15=I Must Have That Man!
EXTT16=One For My Baby (And One More For The Road)
EXTT17=I'll Never Smile Again
PLAYORDER=
